{
  "accessors": [
    {
      "bufferView": 2,
      "componentType": 5126,
      "count": 65532,
      "max": [
        10.699999809265137,
        9.4398422241210938,
        10.57241153717041
      ],
      "min": [
        -6.8566780090332031,
        -9.7742900848388672,
        -8.7199516296386719
      ],
      "type": "VEC3"
    },
    {
      "bufferView": 2,
      "byteOffset": 786384,
      "componentType": 5126,
      "count": 65532,
      "max": [
        0.99998676776885986,
        0.99999338388442993,
        0.99996757507324219
      ],
      "min": [
        -0.99998962879180908,
        -0.99994885921478271,
        -0.99998611211776733
      ],
      "type": "VEC3"
    },
    {
      "bufferView": 3,
      "componentType": 5126,
      "count": 65532,
      "max": [
        0.99607843160629272,
        0.99607843160629272,
        0.99607843160629272,
        1
      ],
      "min": [
        0.047058824449777603,
        0.035294119268655777,
        0.015686275437474251,
        1
      ],
      "type": "VEC4"
    },
    {
      "bufferView": 1,
      "componentType": 5126,
      "count": 65532,
      "max": [
        0.98345100879669189,
        0.99991697072982788
      ],
      "min": [
        0,
        0
      ],
      "type": "VEC2"
    },
    {
      "bufferView": 0,
      "componentType": 5125,
      "count": 352071,
      "max": [
        65531
      ],
      "min": [
        0
      ],
      "type": "SCALAR"
    },
    {
      "bufferView": 2,
      "byteOffset": 1572768,
      "componentType": 5126,
      "count": 26963,
      "max": [
        10.639726638793945,
        9.3694601058959961,
        10.541501045227051
      ],
      "min": [
        -6.8566780090332031,
        -9.7050113677978516,
        -8.7145767211914062
      ],
      "type": "VEC3"
    },
    {
      "bufferView": 2,
      "byteOffset": 1896324,
      "componentType": 5126,
      "count": 26963,
      "max": [
        0.99993288516998291,
        0.99971961975097656,
        0.99996757507324219
      ],
      "min": [
        -0.99998962879180908,
        -0.99991285800933838,
        -0.99998611211776733
      ],
      "type": "VEC3"
    },
    {
      "bufferView": 3,
      "byteOffset": 1048512,
      "componentType": 5126,
      "count": 26963,
      "max": [
        0.98039215803146362,
        0.98039215803146362,
        0.97647058963775635,
        1
      ],
      "min": [
        0.047058824449777603,
        0.035294119268655777,
        0.019607843831181526,
        1
      ],
      "type": "VEC4"
    },
    {
      "bufferView": 1,
      "byteOffset": 524256,
      "componentType": 5126,
      "count": 26963,
      "max": [
        0.98345100879669189,
        1
      ],
      "min": [
        0.0090210000053048134,
        0
      ],
      "type": "VEC2"
    },
    {
      "bufferView": 0,
      "byteOffset": 1408284,
      "componentType": 5125,
      "count": 97929,
      "max": [
        26962
      ],
      "min": [
        0
      ],
      "type": "SCALAR"
    }
  ],
  "asset": {
    "extras": {
      "author": "Digital Archive of Natural History (DiNArDa) (https://sketchfab.com/disc3d)",
      "license": "CC0-1.0 (http://creativecommons.org/publicdomain/zero/1.0/)",
      "source": "https://sketchfab.com/3d-models/red-oak-acorn-94bf085f6b5344afb18e45eb8fca5e85",
      "title": "Red oak acorn"
    },
    "generator": "Sketchfab-7.80.0",
    "version": "2.0"
  },
  "bufferViews": [
    {
      "buffer": 0,
      "byteLength": 1800000,
      "byteOffset": 0,
      "name": "floatBufferViews",
      "target": 34963
    },
    {
      "buffer": 0,
      "byteLength": 739960,
      "byteOffset": 1800000,
      "byteStride": 8,
      "name": "floatBufferViews",
      "target": 34962
    },
    {
      "buffer": 0,
      "byteLength": 2219880,
      "byteOffset": 2539960,
      "byteStride": 12,
      "name": "floatBufferViews",
      "target": 34962
    },
    {
      "buffer": 0,
      "byteLength": 1479920,
      "byteOffset": 4759840,
      "byteStride": 16,
      "name": "floatBufferViews",
      "target": 34962
    }
  ],
  "buffers": [
    {
      "byteLength": 6239760,
      "uri": "scene.bin"
    }
  ],
  "images": [
    {
      "uri": "textures/Red_oak_acorn_baseColor.png"
    }
  ],
  "materials": [
    {
      "doubleSided": true,
      "emissiveFactor": [
        0.33228556315104163,
        0.33228556315104163,
        0.33228556315104163
      ],
      "emissiveTexture": {
        "index": 0,
        "texCoord": 0
      },
      "name": "Red_oak_acorn",
      "pbrMetallicRoughness": {
        "baseColorFactor": [
          1,
          1,
          1,
          1
        ],
        "baseColorTexture": {
          "index": 0,
          "texCoord": 0
        },
        "metallicFactor": 0,
        "roughnessFactor": 0
      }
    }
  ],
  "meshes": [
    {
      "primitives": [
        {
          "attributes": {
            "COLOR_0": 2,
            "NORMAL": 1,
            "POSITION": 0,
            "TEXCOORD_0": 3
          },
          "indices": 4,
          "material": 0,
          "mode": 4
        }
      ]
    },
    {
      "primitives": [
        {
          "attributes": {
            "COLOR_0": 7,
            "NORMAL": 6,
            "POSITION": 5,
            "TEXCOORD_0": 8
          },
          "indices": 9,
          "material": 0,
          "mode": 4
        }
      ]
    }
  ],
  "nodes": [
    {
      "children": [
        1
      ],
      "name": "RootNode (gltf orientation matrix)",
      "rotation": [
        -0.70710678118654746,
        -0,
        -0,
        0.70710678118654757
      ]
    },
    {
      "children": [
        2
      ],
      "matrix": [
        0.099907740950584412,
        0.80553621053695679,
        -0.58406323194503784,
        0,
        -5.5511151231257827e-17,
        -0.58700019121170044,
        -0.80958682298660278,
        0,
        -0.99499672651290894,
        0.080883987247943878,
        -0.058645863085985184,
        0,
        2.6512598991394043,
        -1.8882780075073242,
        1.9675253629684448,
        1
      ],
      "name": "RootNode (model correction matrix)"
    },
    {
      "children": [
        3,
        4
      ],
      "name": "Red_oak_acorn.obj.cleaner.materialmerger.gles"
    },
    {
      "mesh": 0,
      "name": ""
    },
    {
      "mesh": 1,
      "name": ""
    }
  ],
  "samplers": [
    {
      "magFilter": 9729,
      "minFilter": 9987,
      "wrapS": 10497,
      "wrapT": 10497
    }
  ],
  "scene": 0,
  "scenes": [
    {
      "name": "OSG_Scene",
      "nodes": [
        0
      ]
    }
  ],
  "textures": [
    {
      "sampler": 0,
      "source": 0
    }
  ]
}

